<svg version="1.0" xmlns="http://www.w3.org/2000/svg" width="228.702070pt" height="230.025563pt" viewBox="0 0 228.702070 230.025563" preserveAspectRatio="xMidYMid meet">
  <g transform="translate(-16.110539,245.657546) scale(0.100000,-0.100000)" fill="#000000" stroke="none">
    <path d="M1086 2445 c-437 -91 -779 -417 -892 -852 -34 -130 -43 -336 -20 -473 39 -241 141 -443 316 -624 145 -151 327 -257 538 -314 88 -23 115 -26 277 -26 165 0 188 3 280 27 708 193 1065 975 745 1633 -144 297 -412 521 -731 610 -81 23 -118 27 -269 30 -125 2 -195 -1 -244 -11z m411 -70 c291 -55 541 -222 703 -468 68 -103 112 -202 148 -336 23 -86 26 -114 25 -266 0 -152 -3 -181 -26 -270 -32 -119 -116 -294 -186 -386 -131 -173 -320 -308 -521 -373 -129 -42 -188 -51 -345 -50 -187 1 -296 27 -460 109 -534 265 -752 909 -490 1451 143 296 424 516 745 585 108 22 299 24 407 4z"/>
    <path d="M1139 2265 c-361 -68 -644 -327 -755 -690 -26 -84 -28 -102 -28 -265 0 -207 15 -275 93 -435 126 -255 354 -441 625 -510 99 -25 172 -32 162 -16 -3 5 3 11 14 14 17 4 19 11 15 49 -2 23 -7 73 -11 110 -6 77 -20 94 -36 50 l-12 -31 -18 30 c-31 51 -49 35 -81 -70 -27 -90 -28 -96 -11 -108 31 -23 9 -23 -54 -2 -59 20 -82 38 -45 35 13 -1 23 17 40 69 13 39 26 85 29 103 6 30 5 32 -23 32 -16 0 -35 -6 -42 -12 -11 -11 -12 -8 -6 17 3 16 9 32 11 34 2 3 56 -10 119 -29 102 -29 123 -32 189 -26 58 5 82 3 105 -8 48 -25 53 -60 16 -104 l-25 -30 50 -53 c28 -29 50 -55 50 -56 0 -2 -19 -3 -42 -3 -40 1 -46 5 -87 55 -42 53 -70 72 -57 39 3 -9 6 -29 6 -46 0 -21 6 -31 20 -35 40 -11 18 -23 -40 -23 -33 0 -60 -4 -60 -10 0 -13 53 -13 165 1 668 82 1049 804 745 1409 -124 247 -352 431 -620 500 -109 29 -293 35 -401 15z m129 -56 c-13 -7 -18 -23 -18 -54 0 -41 2 -45 24 -45 45 0 56 10 56 51 0 26 -6 41 -17 48 -14 8 0 10 52 10 52 0 66 -2 53 -10 -15 -9 -18 -26 -18 -119 0 -89 3 -110 14 -110 8 0 18 -4 21 -10 4 -6 -21 -10 -67 -10 -54 1 -69 3 -55 11 12 7 17 23 17 59 l0 50 -40 0 -40 0 0 -50 c0 -36 5 -52 18 -59 13 -8 -1 -10 -53 -10 -52 0 -66 2 -52 10 14 9 17 26 17 119 0 89 -3 110 -14 110 -8 0 -18 5 -21 10 -4 6 21 10 67 10 54 -1 69 -3 56 -11z m259 -10 c40 -17 45 -22 30 -30 -14 -8 -17 -24 -17 -81 l0 -72 35 34 c37 36 47 83 23 109 -7 8 -8 12 -3 10 86 -32 115 -44 115 -51 0 -4 -6 -5 -14 -2 -11 4 -15 -11 -21 -66 -4 -39 -5 -73 -2 -76 9 -9 99 105 92 117 -5 8 0 9 16 4 13 -4 26 -10 29 -14 3 -3 -41 -53 -97 -111 l-103 -105 0 90 0 89 -60 -59 c-33 -32 -61 -57 -64 -54 -4 4 -13 289 -9 289 1 0 23 -9 50 -21z m-481 -34 c21 -51 18 -55 -23 -34 -54 28 -104 13 -123 -37 -21 -56 46 -174 99 -174 15 0 36 6 46 14 16 12 17 17 6 45 -8 19 -21 31 -32 31 -39 0 -27 21 27 45 57 25 85 25 64 -1 -9 -10 -9 -22 0 -49 15 -44 1 -63 -66 -94 -55 -26 -100 -27 -141 -1 -45 27 -65 62 -65 115 -2 72 53 132 130 142 26 4 42 11 42 19 0 26 21 14 36 -21z m-302 -140 c-5 -20 6 -38 58 -99 51 -61 67 -74 86 -70 12 2 22 0 22 -5 0 -11 -92 -87 -102 -84 -4 2 -21 -22 -38 -52 -33 -58 -57 -82 -46 -47 6 17 -1 26 -34 47 -22 14 -45 23 -50 20 -11 -7 -43 -66 -38 -69 2 -1 20 -13 41 -25 31 -19 40 -21 53 -11 28 24 25 3 -8 -53 -35 -60 -49 -71 -45 -36 2 17 -16 33 -87 77 -75 46 -92 53 -107 43 -26 -16 -24 -7 13 55 33 55 50 69 41 34 -4 -14 4 -25 28 -39 19 -12 36 -21 39 -21 6 0 40 58 40 69 0 3 -16 15 -35 25 -28 15 -37 17 -50 6 -24 -20 -17 1 20 60 29 47 35 51 35 30 0 -21 16 -34 90 -78 l90 -53 31 21 c16 12 29 26 27 31 -2 5 -32 43 -67 84 -56 67 -67 76 -90 71 -22 -5 -17 2 28 44 30 27 56 50 58 50 2 0 1 -11 -3 -25z m1156 -175 c-22 -63 -38 -120 -35 -128 13 -34 -11 -30 -51 9 -48 47 -54 60 -25 52 13 -3 21 2 26 17 5 17 0 30 -23 52 -25 26 -32 29 -51 18 -17 -8 -20 -17 -15 -33 7 -21 6 -21 -27 4 -44 34 -46 45 -7 46 18 1 80 22 138 47 58 24 106 41 108 37 1 -4 -16 -59 -38 -121z m199 -67 c17 -31 28 -59 25 -62 -3 -3 -9 0 -13 8 -6 9 -17 2 -40 -27 -17 -22 -31 -43 -31 -47 0 -4 29 -5 64 -3 60 4 65 2 75 -20 15 -31 14 -45 -1 -35 -7 4 -47 11 -88 14 -62 5 -81 3 -112 -12 -30 -15 -38 -25 -38 -47 -1 -22 -7 -14 -36 42 -33 64 -39 101 -10 61 13 -18 14 -18 47 1 40 24 118 130 119 162 0 12 2 22 4 22 3 0 18 -26 35 -57z m-874 -92 c12 -24 19 -27 42 -23 15 3 30 8 33 12 8 12 44 20 56 12 5 -4 20 -45 33 -92 26 -97 49 -146 83 -176 12 -12 75 -48 138 -80 136 -68 209 -132 260 -227 33 -63 34 -67 21 -104 -40 -112 -161 -242 -283 -304 -351 -177 -799 8 -892 367 -21 81 -21 134 -1 134 78 0 232 169 323 355 53 107 68 126 122 149 40 16 45 15 65 -23z m-369 -904 c21 -39 14 -76 -17 -100 -31 -22 -55 -18 -99 19 l-29 25 -31 -23 c-23 -17 -30 -29 -27 -45 7 -35 -7 -28 -53 28 -39 46 -41 50 -18 44 35 -9 192 118 184 149 -6 25 67 -54 90 -97z m909 2 c-6 -17 6 -35 61 -90 38 -38 74 -69 80 -69 21 0 66 61 58 79 -4 9 -9 27 -11 41 -5 23 -3 23 25 -10 17 -19 31 -40 32 -45 0 -6 -36 -46 -81 -90 -56 -56 -79 -73 -74 -56 6 20 -4 34 -66 98 -63 63 -78 73 -99 68 -21 -5 -18 1 25 44 27 28 51 51 53 51 2 0 0 -10 -3 -21z m-799 -91 c-17 -80 -36 -242 -31 -259 8 -24 11 -25 -62 22 -39 24 -50 45 -17 32 8 -3 14 -1 14 5 0 6 3 17 6 26 4 10 -5 22 -28 36 -39 24 -39 24 -63 6 -16 -12 -17 -16 -6 -30 18 -22 5 -20 -36 5 l-34 22 38 17 c21 10 76 45 123 78 47 33 88 61 93 61 4 1 5 -9 3 -21z m745 -44 c83 -79 52 -203 -59 -234 -64 -17 -121 9 -153 71 -25 50 -24 88 4 130 49 74 149 89 208 33z"/>
    <path d="M1817 1906 l-27 -12 24 -23 24 -22 11 32 c16 46 16 46 -32 25z"/>
    <path d="M1105 1226 c-61 -61 -29 -206 45 -206 29 0 62 46 67 94 7 57 -2 90 -29 116 -29 26 -54 25 -83 -4z m65 -91 c0 -40 -19 -73 -33 -58 -4 3 -7 30 -7 58 0 28 3 55 7 58 14 15 33 -18 33 -58z"/>
    <path d="M840 1135 l0 -105 25 0 c23 0 25 4 25 40 0 36 2 40 26 40 21 0 25 4 22 23 -2 14 -11 23 -25 25 -35 5 -29 32 7 32 25 0 30 4 30 25 0 24 -3 25 -55 25 l-55 0 0 -105z"/>
    <path d="M970 1135 l0 -105 56 0 c52 0 55 1 52 23 -2 17 -11 23 -35 25 l-33 3 0 80 c0 72 -2 79 -20 79 -19 0 -20 -7 -20 -105z"/>
    <path d="M1240 1135 l0 -105 25 0 c23 0 25 4 25 41 0 48 16 44 26 -6 5 -30 10 -35 35 -35 l28 0 -13 43 c-11 36 -11 47 0 62 19 25 18 70 -2 89 -10 11 -34 16 -70 16 l-54 0 0 -105z m88 42 c2 -12 -3 -17 -17 -17 -15 0 -21 6 -21 21 0 25 33 22 38 -4z"/>
    <path d="M1400 1135 l0 -105 25 0 25 0 0 105 0 105 -25 0 -25 0 0 -105z"/>
    <path d="M1480 1135 l0 -105 43 0 c69 0 108 63 87 141 -15 54 -34 69 -86 69 l-44 0 0 -105z m75 0 c0 -36 -4 -51 -15 -53 -12 -2 -15 9 -15 53 0 44 3 55 15 53 11 -2 15 -17 15 -53z"/>
    <path d="M1636 1158 c-10 -46 -20 -93 -23 -105 -4 -18 -1 -23 15 -23 11 0 22 8 25 20 3 12 14 20 26 20 14 0 21 -6 21 -20 0 -15 7 -20 26 -20 30 0 30 -8 -2 138 -15 68 -18 72 -43 72 -26 0 -28 -4 -45 -82z"/>
    <path d="M770 781 c-33 -28 -34 -30 -18 -47 17 -17 19 -17 45 3 28 20 38 63 18 70 -6 2 -26 -10 -45 -26z"/>
    <path d="M867 622 c-33 -20 -34 -26 -3 -40 22 -10 24 -8 30 20 3 17 5 32 3 34 -1 1 -15 -5 -30 -14z"/>
    <path d="M1561 644 c-19 -14 -22 -23 -18 -54 2 -21 16 -59 29 -86 21 -42 29 -49 57 -52 68 -7 90 52 50 131 -40 79 -70 94 -118 61z"/>
    <path d="M1317 548 c7 -53 6 -52 37 -44 27 7 41 35 31 66 -5 15 -15 20 -40 20 l-33 0 5 -42z"/>
  </g>
</svg>
